<?xml version="1.0"?>
<svg xmlns="http://www.w3.org/2000/svg" viewBox="0 0 64 64" width="512" height="512"><g id="solid"><path d="M51.8,44.019l3.821-.764L54.323,40h-1.63L48.558,51.028l3.3-3.3-.8-2.413a1,1,0,0,1,.752-1.3Z"/><path d="M35,25h1V21H35a1,1,0,0,0-1,1v2A1,1,0,0,0,35,25Z"/><path d="M50.575,39.952A2,2,0,0,1,49,38V34.523a9.672,9.672,0,0,1-6,0V38a2,2,0,0,1-1.575,1.952L42.943,44h6.114Z"/><polygon points="48.307 46 43.693 46 46 52.151 48.307 46"/><path d="M40.145,47.729l3.3,3.3L39.307,40h-1.63l-1.3,3.255,3.821.764a1,1,0,0,1,.752,1.3Z"/><path d="M42.444,32.165a8.123,8.123,0,0,0,7.109,0,7.95,7.95,0,0,0,4.393-6.275A7.234,7.234,0,0,0,54,25V23.414l-.1-.1a17.784,17.784,0,0,1-4.436-7.367A20.234,20.234,0,0,1,38,20.9V25a7.093,7.093,0,0,0,.053.879A7.954,7.954,0,0,0,42.444,32.165ZM50.5,21A1.5,1.5,0,1,1,49,22.5,1.5,1.5,0,0,1,50.5,21ZM46,27a1,1,0,0,0,1-1h2a3,3,0,0,1-6,0h2A1,1,0,0,0,46,27Zm-4.5-6A1.5,1.5,0,1,1,40,22.5,1.5,1.5,0,0,1,41.5,21Z"/><path d="M56,25h1a1,1,0,0,0,1-1V22a.992.992,0,0,0-.546-.878L56,23.3Z"/><path d="M36,58.35a8.826,8.826,0,0,1-.57-9.862l1.718,1.023a6.823,6.823,0,0,0,.621,7.849A1,1,0,0,1,38,58v2H54V58a1,1,0,0,1,.231-.64,6.823,6.823,0,0,0,.621-7.849l1.718-1.023A8.826,8.826,0,0,1,56,58.35V60h4V45a4.991,4.991,0,0,0-3.409-4.716l1.338,3.344A1,1,0,0,1,57.2,44.98l-3.889.778.641,1.925a1,1,0,0,1-.241,1.024l-7,7c-.015.015-.036.02-.053.035a1.073,1.073,0,0,1-.1.088l-.011.01a.8.8,0,0,1-.112.051c-.029.014-.055.03-.085.041s-.035.017-.054.023a.957.957,0,0,1-.58,0c-.019-.006-.036-.016-.054-.023s-.056-.027-.085-.041a.8.8,0,0,1-.112-.051l-.011-.01a1.073,1.073,0,0,1-.1-.088c-.017-.015-.038-.02-.053-.035l-7-7a1,1,0,0,1-.241-1.024l.641-1.925L34.8,44.98a1,1,0,0,1-.733-1.352l1.338-3.344A4.991,4.991,0,0,0,32,45V60h4ZM45,58h2v2H45Z"/><path d="M6,57h5.758l1.254-8.152A1,1,0,0,1,14,48h6a1,1,0,0,1,1,1v8h7a2,2,0,0,0,2-2V45h0V40a2,2,0,0,0-2-2H6a2,2,0,0,0-2,2V55A2,2,0,0,0,6,57ZM6,40H8v2H6Zm0,4H8v7H6Z"/><path d="M55.932,10.719a3.995,3.995,0,1,0-6.564-4.364A11.512,11.512,0,0,1,55.932,10.719Z"/><polygon points="14.858 50 13.319 60 19 60 19 50 14.858 50"/><path d="M49.233,13.358a1,1,0,0,1,1.747.445,15.792,15.792,0,0,0,3.873,7.615L56,19.7V17a9.258,9.258,0,0,0-9.477-9H45.477A9.258,9.258,0,0,0,36,17l.048,2A18.244,18.244,0,0,0,49.233,13.358Z"/></g></svg>
