<?xml version="1.0" encoding="iso-8859-1"?>
<!-- Generator: Adobe Illustrator 19.0.0, SVG Export Plug-In . SVG Version: 6.00 Build 0)  -->
<svg version="1.1" id="Capa_1" xmlns="http://www.w3.org/2000/svg" xmlns:xlink="http://www.w3.org/1999/xlink" x="0px" y="0px"
	 viewBox="0 0 512 512" style="enable-background:new 0 0 512 512;" xml:space="preserve">
<g>
	<g>
		<path d="M165.5,382c-63.731,0-117.283-44.393-131.373-103.878L62.192,512h206.615l28.065-233.878
			C282.783,337.607,229.231,382,165.5,382z"/>
	</g>
</g>
<g>
	<g>
		<rect x="150.5" width="30" height="202"/>
	</g>
</g>
<g>
	<g>
		<rect x="301.5" y="482" width="30" height="30"/>
	</g>
</g>
<g>
	<g>
		<path d="M489.228,417.771C475.188,404.377,456.462,397,436.5,397h-16V0h-30v397h-14c-19.962,0-38.688,7.377-52.729,20.771
			c-9.926,9.47-16.765,21.257-20.046,34.229h205.549C505.993,439.028,499.154,427.241,489.228,417.771z"/>
	</g>
</g>
<g>
	<g>
		<rect x="481.5" y="482" width="30" height="30"/>
	</g>
</g>
<g>
	<g>
		<rect x="361.5" y="482" width="30" height="30"/>
	</g>
</g>
<g>
	<g>
		<rect x="421.5" y="482" width="30" height="30"/>
	</g>
</g>
<g>
	<g>
		<path d="M0.5,232v30h61.076c7.301,50.817,51.12,90,103.924,90s96.623-39.183,103.924-90H330.5v-30H0.5z"/>
	</g>
</g>
<g>
</g>
<g>
</g>
<g>
</g>
<g>
</g>
<g>
</g>
<g>
</g>
<g>
</g>
<g>
</g>
<g>
</g>
<g>
</g>
<g>
</g>
<g>
</g>
<g>
</g>
<g>
</g>
<g>
</g>
</svg>
