<svg viewBox="0 0 512 512" xmlns="http://www.w3.org/2000/svg" xmlns:xlink="http://www.w3.org/1999/xlink" id="Capa_1" overflow="hidden"><g><g><path d="M165.5 382C101.769 382 48.217 337.607 34.127 278.122L62.192 512 268.807 512 296.872 278.122C282.783 337.607 229.231 382 165.5 382Z" fill="#C00000"/></g></g><g><g><rect x="150.5" y="0" width="30" height="202" fill="#C00000"/></g></g><g><g><rect x="301.5" y="482" width="30" height="30" fill="#C00000"/></g></g><g><g><path d="M489.228 417.771C475.188 404.377 456.462 397 436.5 397L420.5 397 420.5 0 390.5 0 390.5 397 376.5 397C356.538 397 337.812 404.377 323.771 417.771 313.845 427.241 307.006 439.028 303.725 452L509.274 452C505.993 439.028 499.154 427.241 489.228 417.771Z" fill="#C00000"/></g></g><g><g><rect x="481.5" y="482" width="30" height="30" fill="#C00000"/></g></g><g><g><rect x="361.5" y="482" width="30" height="30" fill="#C00000"/></g></g><g><g><rect x="421.5" y="482" width="30" height="30" fill="#C00000"/></g></g><g><g><path d="M0.5 232 0.5 262 61.576 262C68.877 312.817 112.696 352 165.5 352 218.304 352 262.123 312.817 269.424 262L330.5 262 330.5 232 0.5 232Z" fill="#C00000"/></g></g><g></g><g></g><g></g><g></g><g></g><g></g><g></g><g></g><g></g><g></g><g></g><g></g><g></g><g></g><g></g></svg>