<svg width="512" height="512" viewBox="0 0 64 64" xmlns="http://www.w3.org/2000/svg" xmlns:xlink="http://www.w3.org/1999/xlink" overflow="hidden"><g id="solid"><path d="M51.8 44.019 55.621 43.255 54.323 40 52.693 40 48.558 51.028 51.858 47.728 51.058 45.315C50.8816 44.7916 51.1629 44.2244 51.6863 44.048 51.7268 44.0344 51.7681 44.0234 51.81 44.015Z" fill="#C00000"/><path d="M35 25 36 25 36 21 35 21C34.4477 21 34 21.4477 34 22L34 24C34 24.5523 34.4477 25 35 25Z" fill="#C00000"/><path d="M50.575 39.952C49.6565 39.7523 49.0011 38.9399 49 38L49 34.523C47.0506 35.159 44.9494 35.159 43 34.523L43 38C42.9989 38.9399 42.3435 39.7523 41.425 39.952L42.943 44 49.057 44Z" fill="#C00000"/><path d="M48.307 46 43.693 46 46 52.151 48.307 46Z" fill="#C00000"/><path d="M40.145 47.729 43.445 51.029 39.307 40 37.677 40 36.377 43.255 40.198 44.019C40.7396 44.1271 41.0911 44.6537 40.983 45.1953 40.9747 45.2372 40.9636 45.2785 40.95 45.319Z" fill="#C00000"/><path d="M42.444 32.165C44.6879 33.257 47.3091 33.257 49.553 32.165 51.9949 30.9632 53.6523 28.5957 53.946 25.89 53.9823 25.5947 54.0003 25.2975 54 25L54 23.414 53.9 23.314C51.8409 21.2582 50.3177 18.7286 49.464 15.947 46.2605 18.7654 42.248 20.499 38 20.9L38 25C37.9994 25.2938 38.0171 25.5874 38.053 25.879 38.3434 28.5881 40.0003 30.96 42.444 32.165ZM50.5 21C51.3284 21 52 21.6716 52 22.5 52 23.3284 51.3284 24 50.5 24 49.6716 24 49 23.3284 49 22.5 49 21.6716 49.6716 21 50.5 21ZM46 27C46.5523 27 47 26.5523 47 26L49 26C49 27.6569 47.6569 29 46 29 44.3431 29 43 27.6569 43 26L45 26C45 26.5523 45.4477 27 46 27ZM41.5 21C42.3284 21 43 21.6716 43 22.5 43 23.3284 42.3284 24 41.5 24 40.6716 24 40 23.3284 40 22.5 40 21.6716 40.6716 21 41.5 21Z" fill="#C00000"/><path d="M56 25 57 25C57.5523 25 58 24.5523 58 24L58 22C57.997 21.6281 57.7862 21.2892 57.454 21.122L56 23.3Z" fill="#C00000"/><path d="M36 58.35C33.8159 55.4868 33.5903 51.5838 35.43 48.488L37.148 49.511C35.6723 51.9949 35.921 55.139 37.769 57.36 37.9184 57.5398 38.0002 57.7662 38 58L38 60 54 60 54 58C53.9998 57.7662 54.0816 57.5398 54.231 57.36 56.079 55.139 56.3277 51.9949 54.852 49.511L56.57 48.488C58.4097 51.5838 58.1841 55.4868 56 58.35L56 60 60 60 60 45C59.9924 42.8597 58.621 40.9624 56.591 40.284L57.929 43.628C58.1345 44.1406 57.8855 44.7228 57.3728 44.9283 57.3169 44.9507 57.2591 44.968 57.2 44.98L53.311 45.758 53.952 47.683C54.0722 48.0424 53.9789 48.4389 53.711 48.707L46.711 55.707C46.696 55.722 46.675 55.727 46.658 55.742 46.6265 55.7734 46.5931 55.8028 46.558 55.83L46.547 55.84C46.511 55.8599 46.4736 55.8769 46.435 55.891 46.406 55.905 46.38 55.921 46.35 55.932 46.32 55.943 46.315 55.949 46.296 55.955 46.1073 56.015 45.9047 56.015 45.716 55.955 45.697 55.949 45.68 55.939 45.662 55.932 45.644 55.925 45.606 55.905 45.577 55.891 45.5384 55.8769 45.501 55.8598 45.465 55.84L45.454 55.83C45.4189 55.8028 45.3855 55.7734 45.354 55.742 45.337 55.727 45.316 55.722 45.301 55.707L38.301 48.707C38.0331 48.4389 37.9398 48.0424 38.06 47.683L38.701 45.758 34.8 44.98C34.2584 44.872 33.9068 44.3454 34.0148 43.8038 34.0268 43.7437 34.0443 43.6849 34.067 43.628L35.405 40.284C33.3766 40.9638 32.007 42.8607 32 45L32 60 36 60ZM45 58 47 58 47 60 45 60Z" fill="#C00000"/><path d="M6 57 11.758 57 13.012 48.848C13.087 48.3603 13.5066 48.0002 14 48L20 48C20.5523 48 21 48.4477 21 49L21 57 28 57C29.1046 57 30 56.1046 30 55L30 45 30 45 30 40C30 38.8954 29.1046 38 28 38L6 38C4.89543 38 4 38.8954 4 40L4 55C4 56.1046 4.89543 57 6 57ZM6 40 8 40 8 42 6 42ZM6 44 8 44 8 51 6 51Z" fill="#C00000"/><path d="M55.932 10.719C57.4378 9.1063 57.351 6.57829 55.7383 5.07254 54.1256 3.56679 51.5976 3.65349 50.0919 5.26619 49.7924 5.58691 49.5479 5.95477 49.368 6.355 52.0014 6.99194 54.3257 8.53725 55.932 10.719Z" fill="#C00000"/><path d="M14.858 50 13.319 60 19 60 19 50 14.858 50Z" fill="#C00000"/><path d="M49.233 13.358C49.5876 12.9346 50.2183 12.8789 50.6417 13.2335 50.8159 13.3794 50.9352 13.5802 50.98 13.803 51.5468 16.649 52.8869 19.2837 54.853 21.418L56 19.7 56 17C55.8593 11.9017 51.6218 7.87741 46.523 8L45.477 8C40.3782 7.87741 36.1407 11.9017 36 17L36.048 19C41.0289 18.998 45.7924 16.9597 49.233 13.358Z" fill="#C00000"/></g></svg>