<svg width="512" height="512" viewBox="0 0 512 512" xmlns="http://www.w3.org/2000/svg" xmlns:xlink="http://www.w3.org/1999/xlink" id="Layer_1" overflow="hidden"><path d="M167.91 106.5 344.09 106.5 353.329 81.831C359.153 66.279 353.962 48.973 340.704 39.746 340.298 39.463 339.883 39.187 339.463 38.917 313.951 22.554 286.229 14.26 257.056 14.26 256.715 14.26 256.377 14.26 256.036 14.26 255.695 14.26 255.354 14.26 255.014 14.26 225.775 14.26 198.056 22.553 172.54 38.918 172.123 39.187 171.708 39.463 171.302 39.746 158.041 48.976 152.85 66.282 158.674 81.834ZM254.48 48.018C267.587 48.0191 278.212 58.6456 278.211 71.753 278.21 84.8604 267.583 95.4851 254.476 95.484 241.369 95.4829 230.745 84.8576 230.745 71.751 230.759 58.6483 241.377 48.0299 254.48 48.015Z" fill="#C00000"/><path d="M340.909 168.372 343.699 166.093C349.251 161.598 351.21 154.001 348.525 147.381 346.598 142.596 341.656 139.403 336.681 138.062L340.545 165.243C340.693 166.288 340.809 167.331 340.909 168.372Z" fill="#C00000"/><path d="M182.472 123.535C184.801 128.461 189.756 131.609 195.205 131.622L320.8 131.622C326.249 131.609 331.204 128.462 333.533 123.536L336.779 116.497 179.165 116.497Z" fill="#C00000"/><path d="M339.868 295.899 353.254 300.699 358.771 285.454 345.385 280.653Z" fill="#C00000"/><path d="M254.48 85.48C262.065 85.4789 268.212 79.3295 268.211 71.745 268.21 64.1605 262.061 58.0129 254.476 58.014 246.892 58.0151 240.744 64.1639 240.745 71.748 240.755 79.329 246.899 85.4717 254.48 85.48Z" fill="#C00000"/><path d="M256.668 246.293C293.839 246.293 325.682 218.707 330.737 182.125 331.426 176.987 331.395 171.779 330.645 166.65L326.968 140.794C324.955 141.339 322.88 141.617 320.795 141.622L195.205 141.622C192.22 141.618 189.263 141.054 186.485 139.962L182.678 166.742C181.995 171.308 181.9 175.943 182.396 180.533 186.872 218.128 218.808 246.404 256.668 246.293Z" fill="#C00000"/><path d="M305.315 276.5C304.003 279.096 302.204 281.414 300.015 283.329L265.43 313.556 312.973 330.505Z" fill="#C00000"/><path d="M409.848 303.769 397.547 299.358 392.03 314.604 404.331 319.015Z" fill="#C00000"/><path d="M212.129 283.321C209.924 281.384 208.117 279.036 206.808 276.409L197.043 330.491 246.505 313.48Z" fill="#C00000"/><path d="M388.134 295.983 368.184 288.829 362.667 304.075 382.617 311.229Z" fill="#C00000"/><path d="M270.775 348.746 277.881 328.611 255.971 320.8 234.025 328.347 241.225 348.746Z" fill="#C00000"/><path d="M297.753 266.312 297.753 245.623C271.797 260.044 240.188 259.835 214.425 245.072L214.425 266.332C214.428 269.961 215.995 273.413 218.725 275.804L256.006 308.512 293.436 275.799C296.176 273.408 297.75 269.949 297.753 266.312Z" fill="#C00000"/><path d="M169.637 166.367 172.395 168.62C172.495 167.532 172.621 166.438 172.777 165.335L176.627 138.253C171.694 139.507 166.821 142.664 164.81 147.653 162.124 154.273 164.084 161.872 169.637 166.367Z" fill="#C00000"/><path d="M67.874 440.337 131.536 440.337 131.536 497.746 67.874 497.746Z" fill="#C00000"/><path d="M141.536 435.337 141.536 497.746 217.4 497.746 236.526 358.593C234.88 358.203 233.544 357.004 232.978 355.41L224.578 331.6 192.243 342.72C189.632 343.618 186.787 342.228 185.889 339.617 185.612 338.809 185.545 337.944 185.697 337.104L196.18 279.039 179.564 287.026 183.25 297.212C184.19 299.809 182.847 302.675 180.25 303.615 180.246 303.617 180.241 303.618 180.237 303.62L106.361 330.111C103.767 331.044 100.907 329.699 99.972 327.105L97.572 320.468C78.7866 336.546 67.9428 360.014 67.874 384.74L67.874 430.34 136.536 430.34C139.296 430.34 141.534 432.577 141.536 435.337ZM157 400.161C157 397.4 159.239 395.161 162 395.161 164.761 395.161 167 397.4 167 400.161L167 407.068C167 409.829 164.761 412.068 162 412.068 159.239 412.068 157 409.829 157 407.068ZM157 430.327C157 427.566 159.239 425.327 162 425.327 164.761 425.327 167 427.566 167 430.327L167 480.306C167 483.067 164.761 485.306 162 485.306 159.239 485.306 157 483.067 157 480.306Z" fill="#C00000"/><path d="M380.464 440.337 444.126 440.337 444.126 497.746 380.464 497.746Z" fill="#C00000"/><path d="M405.648 330.111 331.772 303.62C329.173 302.687 327.822 299.824 328.754 297.225 328.756 297.221 328.757 297.216 328.759 297.212L332.859 285.892 315.478 276.915 324.038 337.29C324.427 340.024 322.525 342.555 319.791 342.944 318.986 343.058 318.165 342.974 317.4 342.7L287.3 331.968 279.026 355.409C278.46 357.003 277.124 358.202 275.478 358.592L294.604 497.745 370.463 497.745 370.463 435.337C370.463 432.576 372.702 430.337 375.463 430.337L444.125 430.337 444.125 384.737C444.059 360.013 433.219 336.545 414.438 320.465L412.038 327.102C411.103 329.696 408.243 331.041 405.649 330.108Z" fill="#C00000"/><path d="M284.512 497.746 265.407 358.746 246.593 358.746 227.488 497.746Z" fill="#C00000"/><path d="M172.132 295.899 166.615 280.653 153.844 285.233 159.361 300.479Z" fill="#C00000"/><path d="M149.949 303.854 144.432 288.608 124.481 295.762 129.998 311.008Z" fill="#C00000"/><path d="M120.586 314.383 115.069 299.137 102.152 303.769 107.669 319.015Z" fill="#C00000"/></svg>